<svg xmlns="http://www.w3.org/2000/svg" viewBox="0 0 256 256" width="256" height="256">
  <defs>
    <filter id="grain-ss" x="0" y="0" width="100%" height="100%">
      <feTurbulence type="fractalNoise" baseFrequency="0.95" numOctaves="2" seed="29" stitchTiles="stitch"/>
      <feColorMatrix values="0 0 0 0 1   0 0 0 0 1   0 0 0 0 1   0 0 0 0.22 0"/>
      <feComposite in2="SourceGraphic" operator="in"/>
    </filter>
    <linearGradient id="bg-ss" x1="0" y1="0" x2="0" y2="1">
      <stop offset="0" stop-color="#FB7185"/>
      <stop offset="1" stop-color="#9F1239"/>
    </linearGradient>
  </defs>
  <rect width="256" height="256" rx="48" fill="url(#bg-ss)"/>
  <rect width="256" height="256" rx="48" fill="white" filter="url(#grain-ss)"/>
  <g transform="translate(64,64) scale(5.333)" fill="none" stroke="white" stroke-width="2" stroke-linecap="round" stroke-linejoin="round">
    <!-- lucide "bug" -->
    <path d="m8 2 1.88 1.88"/>
    <path d="M14.12 3.88 16 2"/>
    <path d="M9 7.13v-1a3.003 3.003 0 1 1 6 0v1"/>
    <path d="M12 20c-3.3 0-6-2.7-6-6v-3a4 4 0 0 1 4-4h4a4 4 0 0 1 4 4v3c0 3.3-2.7 6-6 6"/>
    <path d="M12 20v-9"/>
    <path d="M6.53 9C4.6 8.8 3 7.1 3 5"/>
    <path d="M6 13H2"/>
    <path d="M3 21c0-2.1 1.7-3.9 3.8-4"/>
    <path d="M20.97 5c0 2.1-1.6 3.8-3.5 4"/>
    <path d="M22 13h-4"/>
    <path d="M17.2 17c2.1.1 3.8 1.9 3.8 4"/>
  </g>
</svg>
