<svg xmlns="http://www.w3.org/2000/svg" viewBox="0 0 1200 675" width="1200" height="675">
  <defs>
    <filter id="grain-erw-b" x="0" y="0" width="100%" height="100%">
      <feTurbulence type="fractalNoise" baseFrequency="0.85" numOctaves="2" seed="41" stitchTiles="stitch"/>
      <feColorMatrix values="0 0 0 0 1   0 0 0 0 1   0 0 0 0 1   0 0 0 0.16 0"/>
      <feComposite in2="SourceGraphic" operator="in"/>
    </filter>
    <linearGradient id="bg-erw-b" x1="0" y1="0" x2="1" y2="1">
      <stop offset="0" stop-color="#FB923C"/>
      <stop offset="1" stop-color="#9A3412"/>
    </linearGradient>
  </defs>
  <rect width="1200" height="675" fill="url(#bg-erw-b)"/>
  <rect width="1200" height="675" fill="white" filter="url(#grain-erw-b)"/>
  <g transform="translate(120,200) scale(11.25)" fill="none" stroke="white" stroke-width="1.5" stroke-linecap="round" stroke-linejoin="round">
    <path d="M22 10.5V6a2 2 0 0 0-2-2H4a2 2 0 0 0-2 2v12c0 1.1.9 2 2 2h8"/>
    <path d="m22 7-8.97 5.7a1.94 1.94 0 0 1-2.06 0L2 7"/>
    <path d="M20 14v4"/>
    <path d="M20 22v.01"/>
  </g>
  <text x="460" y="325" font-family="system-ui, -apple-system, 'Segoe UI', Roboto, sans-serif" font-size="58" font-weight="700" fill="white" dominant-baseline="middle">External Recipient Warning</text>
  <text x="460" y="395" font-family="system-ui, -apple-system, 'Segoe UI', Roboto, sans-serif" font-size="26" font-weight="400" fill="white" fill-opacity="0.85" dominant-baseline="middle">Catch sends to the wrong address before they leave</text>
</svg>
